<?xml version="1.0" encoding="utf-8"?>
<!-- Generator: Adobe Illustrator 22.0.1, SVG Export Plug-In . SVG Version: 6.00 Build 0)  -->
<svg version="1.1" xmlns="http://www.w3.org/2000/svg" xmlns:xlink="http://www.w3.org/1999/xlink" x="0px" y="0px"
	 viewBox="0 0 600 600" style="enable-background:new 0 0 600 600;" xml:space="preserve">
<style type="text/css">
	.st0{fill:none;stroke:#000000;stroke-width:7;stroke-miterlimit:10;}
	.st1{fill:none;}
	.st2{font-family:'LeagueGothic-Regular';}
	.st3{font-size:24px;}
	.st4{letter-spacing:4;}
</style>
<g id="Design_Elements">
	<g>
		<path class="st0" d="M177.2,290.9c0-67.8,55-122.8,122.8-122.8c67.8,0,122.8,55,122.8,122.8"/>
		
			<ellipse transform="matrix(1 -1.233882e-03 1.233882e-03 1 -0.3652 0.3704)" class="st0" cx="300" cy="296.2" rx="214.5" ry="214.5"/>
	</g>
</g>
<g id="Maximus_Bloom">
	<path id="SVGID_x5F_1_x5F__1_" class="st1" d="M827.6,316.3c36.9,88.1,131.8,150.8,243.1,150.8c111.3,0,206.2-62.7,243.1-150.8"/>
	<text>	<textPath  xlink:href="#SVGID_x5F_1_x5F__1_" startOffset="0%">
<tspan  class="st2" style="font-size:32px; letter-spacing:630;">completely editable</tspan>	</textPath>
</text>
	<g>
		<text transform="matrix(0 1 -1 0 1316.4858 148.7451)" class="st2" style="font-size:29px; letter-spacing:15;">goods</text>
	</g>
	<g>
		<text transform="matrix(1 0 0 1 813.5177 461.4651)" class="st2" style="font-size:28px; letter-spacing:8;">trd</text>
	</g>
	<g>
		<text transform="matrix(1 0 0 1 1286.8236 461.4653)" class="st2" style="font-size:28px; letter-spacing:8;">mrk</text>
	</g>
	<g>
		<text transform="matrix(1 0 0 1 941.2281 312.4709)" class="st2" style="font-size:120px; letter-spacing:33;">type</text>
	</g>
	<g>
		<text transform="matrix(1 0 0 1 907.0956 172.3804)" class="st2" style="font-size:32px; letter-spacing:20;">vector made</text>
	</g>
	<g>
		<text transform="matrix(1 0 0 1 982.2376 378.649)" class="st2" style="font-size:30px; letter-spacing:10;">templates</text>
	</g>
	<g>
		<text transform="matrix(0 1 -1 0 813.6304 148.7451)" class="st2" style="font-size:29px; letter-spacing:15;">found</text>
	</g>
	<path id="SVGID_x5F_2_x5F_" class="st1" d="M333.6,800.3c16.3,210.5,192.3,376.2,406.9,376.2c214.6,0,390.6-165.7,406.9-376.2"/>
	<text>	<textPath  xlink:href="#SVGID_x5F_2_x5F_" startOffset="0%">
<tspan  class="st2" style="font-size:72.2054px; letter-spacing:680;">vector templates</tspan>	</textPath>
</text>
	<path id="SVGID_x5F_3_x5F_" class="st1" d="M459.3,805.6c11.3,145.4,132.8,259.9,281.2,259.9s269.9-114.5,281.2-259.9"/>
	<text>	<textPath  xlink:href="#SVGID_x5F_3_x5F_" startOffset="0%">
<tspan  class="st2" style="font-size:60.3899px; letter-spacing:720;">text editable</tspan>	</textPath>
</text>
	<text transform="matrix(1 0 0 1 621.1484 875.1304)" class="st2" style="font-size:107.6516px; letter-spacing:32;">type</text>
	<g>
		<text transform="matrix(1 0 0 1 643.8798 946.7944)" class="st2 st4" style="font-size:44.636px;">19</text>
	</g>
	<g>
		<text transform="matrix(1 0 0 1 798.4267 946.7944)" class="st2 st4" style="font-size:44.636px;">85</text>
	</g>
	<g>
		<text transform="matrix(1 0 0 1 735.0771 916.2905)"><tspan x="0" y="0" class="st2" style="font-size:26.2565px;">e</tspan><tspan x="-0.5" y="34.1" class="st2" style="font-size:26.2565px;">s</tspan><tspan x="-0.1" y="68.3" class="st2" style="font-size:26.2565px;">t</tspan></text>
	</g>
	<path id="Max_x5F_Bloom_x5F_x2019_x5F_s_x5F_World_x5F_1_x5F_" class="st1" d="M147.8,290.9c0-84,68.1-152.2,152.2-152.2
		c84,0,152.2,68.1,152.2,152.2"/>
	<text id="Max_Bloom_x2019_s_World">	<textPath  xlink:href="#Max_x5F_Bloom_x5F_x2019_x5F_s_x5F_World_x5F_1_x5F_" startOffset="6.000000e-03%">
<tspan  class="st2" style="font-size:32px; letter-spacing:550;">Max Bloom’s WOrld</tspan>	</textPath>
</text>
	<text id="Max_Bloom" transform="matrix(1 0 0 1 242.1248 398.8947)" class="st2 st3 st4">Max Bloom</text>
	<g id="Productions">
		<path id="SVGID_x5F_4_x5F_" class="st1" d="M129,356.8c24.9,70.4,92.1,120.8,171,120.8c78.9,0,146.1-50.4,171-120.8"/>
		<text>		<textPath  xlink:href="#SVGID_x5F_4_x5F_" startOffset="0%">
<tspan  class="st2" style="font-size:32px; letter-spacing:550;">Productions</tspan>		</textPath>
</text>
	</g>
</g>
</svg>
